{
    "asset" : {
        "generator" : "Khronos glTF Blender I/O v3.2.43",
        "version" : "2.0"
    },
    "scene" : 0,
    "scenes" : [
        {
            "name" : "Scene",
            "nodes" : [
                0
            ]
        }
    ],
    "nodes" : [
        {
            "mesh" : 0,
            "name" : "Wardrobe",
            "scale" : [
                0.2063629925251007,
                0.4046112298965454,
                0.2063629925251007
            ],
            "translation" : [
                -0.6878024339675903,
                0.4580901861190796,
                0.758808434009552
            ]
        }
    ],
    "materials" : [
        {
            "doubleSided" : true,
            "name" : "Material.003",
            "pbrMetallicRoughness" : {
                "baseColorTexture" : {
                    "index" : 0
                },
                "metallicFactor" : 0,
                "roughnessFactor" : 0.5
            }
        },
        {
            "doubleSided" : true,
            "name" : "Material.004",
            "pbrMetallicRoughness" : {
                "baseColorFactor" : [
                    0.0036765080876648426,
                    0.0036765080876648426,
                    0.0036765080876648426,
                    1
                ],
                "metallicFactor" : 0,
                "roughnessFactor" : 0.5
            }
        }
    ],
    "meshes" : [
        {
            "name" : "Cube",
            "primitives" : [
                {
                    "attributes" : {
                        "POSITION" : 0,
                        "NORMAL" : 1,
                        "TEXCOORD_0" : 2
                    },
                    "indices" : 3,
                    "material" : 0
                },
                {
                    "attributes" : {
                        "POSITION" : 4,
                        "NORMAL" : 5,
                        "TEXCOORD_0" : 6
                    },
                    "indices" : 7,
                    "material" : 1
                }
            ]
        }
    ],
    "textures" : [
        {
            "sampler" : 0,
            "source" : 0
        }
    ],
    "images" : [
        {
            "mimeType" : "image/png",
            "name" : "Wardrobe",
            "uri" : "Wardrobe.png"
        }
    ],
    "accessors" : [
        {
            "bufferView" : 0,
            "componentType" : 5126,
            "count" : 527,
            "max" : [
                0.772983968257904,
                1,
                1
            ],
            "min" : [
                -1,
                -1,
                -1.69530189037323
            ],
            "type" : "VEC3"
        },
        {
            "bufferView" : 1,
            "componentType" : 5126,
            "count" : 527,
            "type" : "VEC3"
        },
        {
            "bufferView" : 2,
            "componentType" : 5126,
            "count" : 527,
            "type" : "VEC2"
        },
        {
            "bufferView" : 3,
            "componentType" : 5123,
            "count" : 894,
            "type" : "SCALAR"
        },
        {
            "bufferView" : 4,
            "componentType" : 5126,
            "count" : 1792,
            "max" : [
                0.8107362985610962,
                -0.42720097303390503,
                0.3751729130744934
            ],
            "min" : [
                0.13639485836029053,
                -0.7691242694854736,
                -1.0317171812057495
            ],
            "type" : "VEC3"
        },
        {
            "bufferView" : 5,
            "componentType" : 5126,
            "count" : 1792,
            "type" : "VEC3"
        },
        {
            "bufferView" : 6,
            "componentType" : 5126,
            "count" : 1792,
            "type" : "VEC2"
        },
        {
            "bufferView" : 7,
            "componentType" : 5123,
            "count" : 3024,
            "type" : "SCALAR"
        }
    ],
    "bufferViews" : [
        {
            "buffer" : 0,
            "byteLength" : 6324,
            "byteOffset" : 0
        },
        {
            "buffer" : 0,
            "byteLength" : 6324,
            "byteOffset" : 6324
        },
        {
            "buffer" : 0,
            "byteLength" : 4216,
            "byteOffset" : 12648
        },
        {
            "buffer" : 0,
            "byteLength" : 1788,
            "byteOffset" : 16864
        },
        {
            "buffer" : 0,
            "byteLength" : 21504,
            "byteOffset" : 18652
        },
        {
            "buffer" : 0,
            "byteLength" : 21504,
            "byteOffset" : 40156
        },
        {
            "buffer" : 0,
            "byteLength" : 14336,
            "byteOffset" : 61660
        },
        {
            "buffer" : 0,
            "byteLength" : 6048,
            "byteOffset" : 75996
        }
    ],
    "samplers" : [
        {
            "magFilter" : 9729,
            "minFilter" : 9987
        }
    ],
    "buffers" : [
        {
            "byteLength" : 82044,
            "uri" : "wardrobe.bin"
        }
    ]
}
